<?xml version="1.0" standalone="no"?>
<!DOCTYPE svg PUBLIC "-//W3C//DTD SVG 1.1//EN" "http://www.w3.org/Graphics/SVG/1.1/DTD/svg11.dtd" >
<svg xmlns="http://www.w3.org/2000/svg">
<metadata>
Created by FontPrep 20130207 at Mon Jun  2 20:40:59 2014
 By Chris W. Burke
Copyright Copr. 1999, Luc[as] de Groot &#60;www.FontFabrik.com&#62;. All rights reserved. Published by FontShop International &#60;www.fontfont.de&#62;
</metadata>
<defs>
<font id="819462fd037a9bed9b896b346823231d" horiz-adv-x='1024' >
  <font-face 
    font-family="TheSans-B4SemiLight"
    font-weight="200"
    font-stretch="normal"
    units-per-em="2048"
    panose-1="2 0 3 3 0 0 0 0 0 0"
    ascent="1638"
    descent="-410"
    x-height="1018"
    cap-height="1382"
    bbox="-117 -526.008 2081 1749"
    underline-thickness="120"
    underline-position="-453"
    unicode-range="U+0020-FFFD"
  />
<missing-glyph 
 />
    <glyph glyph-name=".notdef" unicode="&#xfffd;" 
 />
    <glyph glyph-name=".null" horiz-adv-x="0" 
 />
    <glyph glyph-name="nonmarkingreturn" horiz-adv-x="681" 
 />
    <glyph glyph-name="space" unicode=" " horiz-adv-x="446" 
 />
    <glyph glyph-name="exclam" unicode="!" horiz-adv-x="653" 
d="M455 90q0 -45 -32 -76q-32 -30 -77 -30t-77 30t-31 76q0 45 30 77q31 32 78 32t78 -32t31 -77zM438 1436l-28 -1108h-127l-29 1108h184z" />
    <glyph glyph-name="quotedbl" unicode="&#x22;" horiz-adv-x="718" 
d="M281 1430l-29 -451h-111l-28 451h168zM604 1430l-26 -451h-113l-27 451h166z" />
    <glyph glyph-name="numbersign" unicode="#" 
d="M741 858h-315l-37 -371h316zM1059 858h-199l-37 -371h187v-104h-197l-41 -383h-121l41 383h-315l-41 -383h-119l41 383h-190v104h200l37 371h-188v105h200l39 368h121l-41 -368h318l39 368h118l-39 -368h187v-105z" />
    <glyph glyph-name="dollar" unicode="$" 
d="M932 406q0 -140 -92 -240t-254 -125v-215h-117v207q-156 4 -260 30l18 146q119 -45 255 -45t212 54q78 54 78 165q0 78 -61 130t-149 84t-174 69q-87 36 -148 110q-62 74 -62 192t92 214q92 94 240 114v199h119v-192q133 -4 221 -25l-16 -139q-113 37 -242 37t-195 -58
q-65 -58 -65 -132q1 -134 158 -195q157 -62 286 -127q68 -36 112 -102t44 -156z" />
    <glyph glyph-name="percent" unicode="%" horiz-adv-x="1527" 
d="M547 1030q0 213 -162 213q-70 0 -114 -57t-44 -148q0 -217 164 -217q70 -1 113 57t43 152zM1147 88q69 0 111 58t42 160q0 204 -161 204q-70 0 -114 -56t-44 -149q0 -217 166 -217zM678 1042q0 -145 -82 -237t-219 -92q-281 0 -281 311q0 143 81 234t220 92
q281 -1 281 -308zM1319 1296l-1014 -1337l-102 72l1016 1337zM1432 311q0 -145 -82 -237t-220 -92q-281 0 -280 311q0 141 82 233t219 92q281 0 281 -307z" />
    <glyph glyph-name="ampersand" unicode="&#x26;" horiz-adv-x="1626" 
d="M279 399q0 -121 87 -203t228 -83q232 -1 410 155q-283 233 -500 473q-121 -96 -173 -175t-52 -167zM727 1216q0 78 -44 124t-127 46t-133 -48t-50 -124q0 -106 162 -292q100 80 146 148t46 146zM121 379q0 133 75 235t222 217q-113 129 -156 211t-43 164q0 127 93 213
q94 86 248 86t237 -74q82 -75 82 -187q1 -112 -59 -208t-199 -202q231 -248 483 -453v-2q166 227 145 528h156q10 -358 -191 -610q166 -131 287 -213l-98 -119q-168 113 -295 221q-229 -205 -545 -204q-209 0 -325 110t-117 287z" />
    <glyph glyph-name="quotesingle" unicode="'" horiz-adv-x="393" 
d="M281 1430l-29 -451h-111l-28 451h168z" />
    <glyph glyph-name="parenleft" unicode="(" horiz-adv-x="618" 
d="M160 582q0 541 299 1013l106 -55q-258 -438 -258 -956t262 -951l-112 -55q-170 268 -234 510q-63 242 -63 494z" />
    <glyph glyph-name="parenright" unicode=")" horiz-adv-x="618" 
d="M473 592q0 -537 -301 -1014l-106 55q258 437 258 955t-261 950l113 57q170 -269 234 -511t63 -492z" />
    <glyph glyph-name="asterisk" unicode="*" horiz-adv-x="755" 
d="M659 1100l-59 -105l-190 133l20 -231h-119l21 231l-191 -133l-57 103l211 98l-211 98l59 101l189 -131l-19 231h117l-18 -231l190 131l57 -101l-210 -96z" />
    <glyph glyph-name="plus" unicode="+" 
d="M1038 545h-403v-424h-146v424h-401v129h401v422h146v-422h403v-129z" />
    <glyph glyph-name="comma" unicode="," horiz-adv-x="444" 
d="M222 203q66 0 96 -67q30 -66 -17 -188t-182 -249l-68 59q168 184 90 287q-39 49 -12 103t93 55z" />
    <glyph glyph-name="hyphen" unicode="-" horiz-adv-x="671" 
d="M573 532h-475v127h475v-127z" />
    <glyph glyph-name="period" unicode="." horiz-adv-x="444" 
d="M334 94q0 -47 -33 -79q-33 -31 -79 -31t-79 32t-32 78q0 45 32 78q33 33 79 33t79 -32t33 -79z" />
    <glyph glyph-name="slash" unicode="/" horiz-adv-x="876" 
d="M879 1550l-717 -1880h-146l717 1880h146z" />
    <glyph glyph-name="zero" unicode="0" 
d="M551 113q147 1 224 143t77 426t-70 412q-70 127 -212 127q-298 0 -298 -535q0 -295 66 -434t213 -139zM572 1350q210 0 328 -152t118 -514t-136 -532t-346 -170t-320 162t-110 514t128 522t338 170z" />
    <glyph glyph-name="one" unicode="1" 
d="M1008 0h-848v139h366v1039l-340 -134l-28 144l399 143h127v-1192h324v-139z" />
    <glyph glyph-name="two" unicode="2" 
d="M985 0h-860v123l330 326q195 190 255 288t60 211t-76 190t-207 76q-170 0 -307 -108l-43 131q174 113 374 113q199 0 311 -111t112 -259t-67 -267t-259 -301l-280 -269v-2q164 4 436 4h221v-145z" />
    <glyph glyph-name="three" unicode="3" 
d="M961 401q-1 -193 -147 -307t-398 -112q-139 0 -250 32l20 142q120 -41 270 -41q150 -1 244 71t94 192t-90 188q-92 68 -260 69q-104 0 -194 -8v125h41q475 0 475 262q0 96 -72 152t-204 56t-283 -77l-17 137q164 68 346 68t287 -88t105 -218q1 -251 -262 -325v-2
q125 -9 210 -101t85 -215z" />
    <glyph glyph-name="four" unicode="4" 
d="M696 455v723h-2l-483 -729q133 6 485 6zM1081 315h-235v-315h-152v315h-631l-12 121l588 895h207v-876h235v-140z" />
    <glyph glyph-name="five" unicode="5" 
d="M963 432q-1 -203 -149 -327t-394 -123q-127 0 -240 26v146q116 -39 272 -39t251 80t95 213q0 132 -98 202t-242 70t-247 -16v667h702v-147h-559v-383q78 4 125 4q231 1 357 -105t127 -268z" />
    <glyph glyph-name="six" unicode="6" 
d="M868 414q0 135 -73 213q-74 78 -207 78q-133 -1 -215 -87t-82 -186q0 -139 79 -231t214 -92t210 85q74 85 74 220zM1024 446q0 -208 -124 -336t-333 -128t-329 147t-119 406q0 419 181 617t491 198q70 0 106 -7v-135q-74 8 -123 9q-408 0 -491 -467q-6 -29 -17 -107h2
q50 90 142 140t204 51q194 0 302 -110t108 -278z" />
    <glyph glyph-name="seven" unicode="7" 
d="M301 1182h-182v149h891v-133q-322 -592 -535 -1198h-180q254 664 539 1186q-86 -4 -533 -4z" />
    <glyph glyph-name="eight" unicode="8" 
d="M283 319q-1 -94 75 -152t202 -58t204 55t78 159t-85 172q-85 67 -206 119q-201 -112 -248 -203q-20 -42 -20 -92zM809 1026q0 88 -69 143q-68 55 -180 55t-178 -58t-67 -144t57 -141t199 -125q115 62 177 122t61 148zM1004 320q0 -144 -128 -241t-324 -97t-314 89
t-117 222q0 133 80 217t223 164q-135 66 -202 144t-66 192q0 147 115 243q116 97 301 97q184 0 290 -88t107 -232q0 -106 -71 -184t-198 -150q143 -72 224 -152q80 -80 80 -224z" />
    <glyph glyph-name="nine" unicode="9" 
d="M827 912q0 130 -76 221q-77 90 -210 90t-208 -86t-75 -219t74 -213t206 -80t211 78q78 79 78 209zM999 797q0 -622 -406 -771q-121 -44 -237 -44t-188 14v141q92 -20 180 -20q406 0 473 436q10 66 19 104h-2q-106 -166 -332 -165q-190 0 -297 111t-107 303t125 318
t330 126t323 -136t119 -417z" />
    <glyph glyph-name="colon" unicode=":" horiz-adv-x="577" 
d="M432 94q0 -45 -32 -78q-32 -32 -78 -32t-80 32q-33 32 -33 78q0 45 33 78t80 33q46 0 78 -33t32 -78zM432 702q0 -48 -32 -80t-78 -32t-80 33q-33 33 -33 79t33 78q33 33 80 33q46 0 78 -32t32 -79z" />
    <glyph glyph-name="semicolon" unicode=";" horiz-adv-x="577" 
d="M324 203q66 0 96 -67q32 -66 -16 -188t-183 -249l-67 59q166 182 90 287q-38 49 -12 103t92 55zM432 702q0 -48 -32 -80t-78 -32t-80 33q-33 33 -33 79t33 78q33 33 80 33q46 0 78 -32t32 -79z" />
    <glyph glyph-name="less" unicode="&#x3c;" 
d="M897 156l-96 -107l-647 572l645 571l98 -98l-547 -471z" />
    <glyph glyph-name="equal" unicode="=" 
d="M1010 379h-893v127h893v-127zM1010 711h-893v129h893v-129z" />
    <glyph glyph-name="greater" unicode="&#x3e;" 
d="M973 623l-645 -574l-99 98l547 474l-547 466l97 105z" />
    <glyph glyph-name="question" unicode="?" horiz-adv-x="907" 
d="M500 90q0 -45 -32 -76q-32 -30 -77 -30t-77 30t-31 76q0 45 30 77q31 32 78 32t78 -32t31 -77zM774 1061q0 -78 -31 -145q-31 -68 -75 -108t-91 -91q-48 -51 -83 -97q-34 -46 -46 -123t17 -169h-150q-33 98 -24 179q8 81 52 151t157 177q43 40 73 95q31 55 31 114
q0 106 -116 180t-304 83l21 141q257 -8 413 -120t156 -267z" />
    <glyph glyph-name="at" unicode="@" horiz-adv-x="2009" 
d="M760 552q0 -157 98 -157q88 0 173 118t128 331l23 114q-49 14 -131 15q-139 0 -215 -132t-76 -289zM1810 825q0 -261 -128 -411t-324 -150q-123 0 -177 70t-40 164h-6q-27 -76 -119 -155t-195 -79q-197 0 -196 268q0 238 118 395q119 157 338 156q137 0 250 -24l-82 -449
q-39 -217 135 -217q125 0 205 112t80 323t-137 371q-70 81 -190 129t-277 48q-311 0 -525 -220t-214 -540t170 -492q170 -173 481 -173q170 0 340 49l20 -127q-168 -53 -379 -53q-362 0 -570 204t-208 551q0 397 262 661t633 263q240 0 410 -96q169 -96 247 -246t78 -332z
" />
    <glyph glyph-name="A" unicode="A" horiz-adv-x="1251" 
d="M883 465l-201 557q-41 115 -61 186h-5q-27 -98 -59 -184l-203 -559h529zM1225 0h-178l-121 340h-615l-123 -340h-161l514 1382h170z" />
    <glyph glyph-name="B" unicode="B" horiz-adv-x="1159" 
d="M883 403q0 252 -406 252q-100 0 -133 -2v-520q74 -12 188 -12q176 1 264 77t87 205zM475 774q181 0 273 68t92 184q0 117 -67 176t-232 60q-78 0 -197 -5v-481q43 -2 131 -2zM1004 1061q0 -115 -67 -202t-183 -126v-4q145 -23 219 -113t74 -204q0 -115 -61 -214
q-36 -58 -91 -102t-153 -72q-98 -30 -222 -30l-334 6v1382q283 6 383 7q215 0 325 -86t110 -242z" />
    <glyph glyph-name="C" unicode="C" horiz-adv-x="1208" 
d="M100 668q0 324 167 526q167 203 505 203q166 0 324 -45l-27 -146q-168 57 -324 58q-239 0 -357 -162t-118 -425t123 -409t373 -145q170 0 317 74l31 -136q-178 -76 -389 -75q-311 0 -468 179t-157 503z" />
    <glyph glyph-name="D" unicode="D" horiz-adv-x="1398" 
d="M1133 694q0 567 -564 568q-59 0 -225 -7v-1118q96 -14 199 -14q272 0 431 143t159 428zM1296 705q0 -347 -211 -529t-563 -182l-336 6v1382l400 7q344 0 527 -169t183 -515z" />
    <glyph glyph-name="E" unicode="E" horiz-adv-x="1034" 
d="M883 0h-697v1382h697v-127h-539v-479h512v-127h-512v-518h539v-131z" />
    <glyph glyph-name="F" unicode="F" horiz-adv-x="962" 
d="M879 1253h-535v-483h506v-127h-506v-643h-158v1382h693v-129z" />
    <glyph glyph-name="G" unicode="G" horiz-adv-x="1402" 
d="M827 1401q184 0 379 -60l-35 -143q-178 70 -360 70q-233 0 -392 -151t-159 -425t146 -425t395 -150q141 0 268 41v538h158v-637q-211 -78 -451 -77q-311 0 -496 182q-186 182 -186 503t199 527t534 207z" />
    <glyph glyph-name="H" unicode="H" horiz-adv-x="1437" 
d="M1251 0h-155v651h-752v-651h-158v1382h158v-600h752v600h155v-1382z" />
    <glyph glyph-name="I" unicode="I" horiz-adv-x="530" 
d="M344 0h-158v1382h158v-1382z" />
    <glyph glyph-name="J" unicode="J" horiz-adv-x="669" 
d="M483 350q0 -180 -79 -272t-254 -92q-66 0 -148 16v141q68 -25 154 -25t129 53q43 52 43 191v1020h155v-1032z" />
    <glyph glyph-name="K" unicode="K" horiz-adv-x="1185" 
d="M344 0h-158v1382h158v-661l590 661h194l-614 -669l635 -713h-217l-588 694v-694z" />
    <glyph glyph-name="L" unicode="L" horiz-adv-x="870" 
d="M856 0h-670v1382h158v-1249h512v-133z" />
    <glyph glyph-name="M" unicode="M" horiz-adv-x="1826" 
d="M1714 0h-166l-123 852q-23 162 -43 346h-4q-31 -123 -67 -231l-324 -967h-178l-307 905q-53 158 -88 293h-2q-4 -86 -37 -362l-101 -836h-161l196 1382h199l315 -933q41 -117 80 -269h2q45 160 76 254l324 948h204z" />
    <glyph glyph-name="N" unicode="N" horiz-adv-x="1456" 
d="M1270 0h-209l-576 918q-82 131 -157 282q12 -315 12 -776v-424h-154v1382h209l566 -897q66 -106 169 -295q-14 322 -14 814v378h154v-1382z" />
    <glyph glyph-name="O" unicode="O" horiz-adv-x="1443" 
d="M721 119q193 1 328 151t135 420t-122 424q-122 152 -328 152t-340 -151t-134 -415t117 -422q117 -159 344 -159zM1352 704q0 -333 -186 -528q-186 -194 -474 -194q-290 0 -445 185t-155 516t186 525t466 193q282 0 445 -182t163 -515z" />
    <glyph glyph-name="P" unicode="P" horiz-adv-x="1067" 
d="M829 973q0 287 -337 287q-104 0 -148 -3v-579q74 -8 125 -8q166 2 263 84t97 219zM993 984q-1 -190 -151 -318t-379 -127q-63 0 -119 6v-545h-158v1382q147 6 351 6t330 -106q126 -108 126 -298z" />
    <glyph glyph-name="Q" unicode="Q" horiz-adv-x="1441" 
d="M721 119q193 1 328 151t135 420t-122 424q-122 152 -328 152t-340 -151t-134 -415t117 -422q117 -159 344 -159zM1442 -365q-146 -20 -280 6q-134 25 -255 53t-235 11v141q192 22 387 -36q194 -58 383 -33v-142zM1352 704q0 -333 -186 -528q-186 -194 -474 -194
q-290 0 -445 185t-155 516t186 525t466 193q282 0 445 -182t163 -515z" />
    <glyph glyph-name="R" unicode="R" horiz-adv-x="1122" 
d="M469 756q158 0 247 72t89 197q0 124 -81 181t-247 58q-72 0 -133 -7v-497q45 -4 125 -4zM344 639v-639h-158v1382q131 6 326 7q457 0 457 -349q0 -176 -125 -279t-307 -112q109 -125 122 -143l398 -506h-203l-485 639h-25z" />
    <glyph glyph-name="S" unicode="S" horiz-adv-x="1032" 
d="M922 397q0 -182 -138 -299t-364 -116q-160 0 -299 41l22 151q139 -55 285 -55t237 63t91 197q0 155 -228 243q-94 36 -188 76t-161 119q-67 80 -66 201q0 170 124 276t345 107q125 0 247 -27l-18 -141q-121 37 -254 37t-208 -62t-75 -172q0 -74 48 -128t120 -83t156 -65
t156 -75q72 -38 120 -112t48 -176z" />
    <glyph glyph-name="T" unicode="T" horiz-adv-x="1062" 
d="M1024 1251h-416v-1251h-155v1251h-414v131h985v-131z" />
    <glyph glyph-name="U" unicode="U" horiz-adv-x="1427" 
d="M1241 524q0 -266 -138 -404t-425 -138t-398 151q-52 72 -73 150q-20 78 -21 176v923h158v-909q0 -170 79 -266t280 -96t293 92t91 309v870h154v-858z" />
    <glyph glyph-name="V" unicode="V" horiz-adv-x="1255" 
d="M1225 1382l-518 -1382h-172l-506 1382h176l323 -919q59 -160 95 -289h4q35 121 100 301l334 907h164z" />
    <glyph glyph-name="W" unicode="W" horiz-adv-x="1949" 
d="M1872 1382l-369 -1382h-194l-287 995q-31 109 -51 222h-2q-18 -106 -49 -222l-281 -995h-190l-371 1382h168l250 -954q39 -150 57 -260h2q29 143 57 248l273 966h184l287 -979q33 -113 55 -233h2q16 104 45 209l260 1003h154z" />
    <glyph glyph-name="X" unicode="X" horiz-adv-x="1202" 
d="M1161 0h-194l-375 596l-371 -596h-180l459 715l-430 667h180l346 -546l340 546h176l-422 -659z" />
    <glyph glyph-name="Y" unicode="Y" horiz-adv-x="1079" 
d="M612 0h-155v500l-432 882h172l235 -493q47 -100 107 -244h2q29 72 121 266l227 471h166l-443 -880v-502z" />
    <glyph glyph-name="Z" unicode="Z" horiz-adv-x="1105" 
d="M1014 0h-920v115l613 952l122 180q-147 -4 -323 -4h-389v139h891v-116l-646 -996q-16 -26 -48 -72t-40 -61q45 6 363 6h377v-143z" />
    <glyph glyph-name="bracketleft" unicode="[" horiz-adv-x="653" 
d="M575 -401h-387v1976h387v-117h-245v-1741h245v-118z" />
    <glyph glyph-name="backslash" unicode="\" horiz-adv-x="874" 
d="M889 -330h-146l-716 1880h145z" />
    <glyph glyph-name="bracketright" unicode="]" horiz-adv-x="653" 
d="M467 -401h-387v118h244v1741h-244v117h387v-1976z" />
    <glyph glyph-name="asciicircum" unicode="^" 
d="M961 768l-117 -61l-305 557l-293 -557l-107 57l340 618h127z" />
    <glyph glyph-name="underscore" unicode="_" 
d="M1126 -512h-1126v121h1126v-121z" />
    <glyph glyph-name="grave" unicode="`" horiz-adv-x="753" 
d="M557 1257l-72 -79l-282 237l90 101z" />
    <glyph glyph-name="a" unicode="a" horiz-adv-x="1064" 
d="M721 461v26q-465 0 -465 -213q0 -74 46 -120t120 -48q129 0 214 108t85 247zM729 0q0 156 10 215h-4q-39 -100 -134 -167q-95 -66 -219 -66t-202 74t-78 196q0 160 162 254t457 94v74q0 121 -52 180t-195 59t-284 -77l-34 127q168 73 362 73t277 -87q82 -87 82 -242v-402
q0 -215 4 -305h-152z" />
    <glyph glyph-name="b" unicode="b" horiz-adv-x="1142" 
d="M887 543q0 367 -244 366q-141 0 -222 -132t-81 -285v-357q86 -27 199 -26q348 0 348 434zM1049 539q1 -252 -141 -402t-384 -149q-197 0 -338 39v1468h154v-516q0 -111 -18 -186l4 -2q43 115 135 181t213 64q180 0 278 -122t97 -375z" />
    <glyph glyph-name="c" unicode="c" horiz-adv-x="901" 
d="M530 -14q-440 0 -440 487q0 256 126 408t359 151q147 0 261 -45l-31 -129q-125 49 -258 49q-133 -1 -214 -113t-81 -294q0 -383 309 -383q139 0 252 53l29 -127q-137 -57 -312 -57z" />
    <glyph glyph-name="d" unicode="d" horiz-adv-x="1140" 
d="M801 526v359q-104 25 -201 24q-164 0 -256 -106t-92 -328q0 -367 246 -366q96 1 168 69q135 128 135 348zM952 0h-151q0 129 18 221l-4 2q-43 -111 -136 -177t-214 -64q-184 0 -280 127q-95 127 -95 375t140 397q140 150 382 149q72 0 189 -10v475h151v-1495z" />
    <glyph glyph-name="e" unicode="e" horiz-adv-x="1034" 
d="M534 920q-112 0 -185 -73t-91 -200h516q4 125 -62 199t-178 74zM934 616q0 -45 -4 -81h-680q-14 -424 338 -424q154 0 289 59l26 -125q-156 -63 -346 -63q-467 0 -467 522q0 236 120 384t323 148t302 -119t99 -301z" />
    <glyph glyph-name="f" unicode="f" horiz-adv-x="712" 
d="M389 1094v-76h301v-121h-301v-897h-153v897h-222v121h222v72q0 416 385 415q83 0 167 -18l-14 -129q-70 22 -174 22q-212 -2 -211 -286z" />
    <glyph glyph-name="g" unicode="g" horiz-adv-x="1103" 
d="M885 -168q0 172 -228 180l-204 8h-66q-145 -94 -145 -217q0 -96 83 -151t231 -55q148 -1 238 65q91 66 91 170zM788 672q0 114 -66 180t-184 66q-120 0 -191 -70t-71 -182t67 -173q67 -63 187 -63t190 64q68 64 68 178zM1042 -147q0 -162 -150 -271q-150 -108 -363 -108
q-215 0 -329 80t-114 223q0 88 50 162t128 118q-47 19 -75 59t-27 91q0 111 110 168q-150 88 -149 282q0 158 114 269t310 110q59 0 137 -18h346v-121h-182q94 -75 94 -225t-110 -253t-316 -104q-70 0 -119 17q-75 -35 -75 -87q0 -53 43 -71t141 -22l194 -9q166 -5 254 -81
t88 -209z" />
    <glyph glyph-name="h" unicode="h" horiz-adv-x="1181" 
d="M995 0h-153v657q0 127 -42 189t-149 63q-135 1 -223 -119t-88 -303v-487h-154v1495h154v-500q0 -135 -16 -202l4 -2q45 115 139 181t223 64q305 0 305 -327v-709z" />
    <glyph glyph-name="i" unicode="i" horiz-adv-x="526" 
d="M340 0h-154v1018h154v-1018zM371 1346q0 -43 -32 -74t-76 -31t-75 30q-30 30 -30 74q0 45 30 75t75 30q44 0 76 -30t32 -74z" />
    <glyph glyph-name="j" unicode="j" horiz-adv-x="542" 
d="M356 -129q0 -209 -74 -302t-262 -93q-78 0 -137 18l15 135q68 -25 131 -24q102 0 138 53t36 203v1157h153v-1147zM174 1345q0 45 31 75t75 30t74 -30t31 -73q0 -44 -31 -75q-30 -31 -74 -31t-75 30t-31 74z" />
    <glyph glyph-name="k" unicode="k" horiz-adv-x="987" 
d="M340 0h-154v1495h154v-934l383 457h186l-405 -463l436 -555h-199l-401 535v-535z" />
    <glyph glyph-name="l" unicode="l" horiz-adv-x="526" 
d="M340 0h-154v1495h154v-1495z" />
    <glyph glyph-name="m" unicode="m" horiz-adv-x="1810" 
d="M1624 0h-154v655q0 125 -39 190q-40 65 -154 65t-205 -118t-91 -309v-483h-152v657q0 121 -38 187q-39 66 -156 66t-206 -122q-89 -121 -89 -305v-483h-154v1018h152q0 -143 -16 -227l4 -3q43 115 138 182t220 66q181 0 249 -125q28 -52 36 -118q35 92 125 168t229 75
q301 0 301 -331v-705z" />
    <glyph glyph-name="n" unicode="n" horiz-adv-x="1181" 
d="M995 0h-153v657q0 127 -42 189t-149 63q-135 1 -223 -119t-88 -303v-487h-154v1018h152q0 -129 -16 -227l4 -3q45 115 139 182t225 66q305 0 305 -327v-709z" />
    <glyph glyph-name="o" unicode="o" horiz-adv-x="1110" 
d="M862 510q0 192 -78 296t-218 103q-140 0 -230 -100t-90 -294t81 -298t220 -104t227 102q88 103 88 295zM1022 542q0 -248 -133 -405q-133 -155 -349 -155t-335 131t-119 373t132 397q132 153 344 153t336 -123t124 -371z" />
    <glyph glyph-name="p" unicode="p" horiz-adv-x="1142" 
d="M887 543q0 367 -244 366q-141 0 -222 -132t-81 -285v-357q86 -27 199 -26q348 0 348 434zM1049 538q-1 -254 -139 -402t-382 -148q-109 0 -188 14v-512h-154v1528h152q0 -141 -16 -221l4 -2q43 113 135 177t213 64q180 0 278 -122t97 -376z" />
    <glyph glyph-name="q" unicode="q" horiz-adv-x="1142" 
d="M803 528v359q-102 25 -199 24q-164 0 -256 -106t-92 -330q0 -367 244 -366q96 1 168 69q135 128 135 350zM956 -510h-153v555q0 104 14 176h-4q-41 -111 -133 -175t-209 -64q-182 0 -280 121q-97 122 -97 375t142 404t389 150q172 0 331 -28v-1514z" />
    <glyph glyph-name="r" unicode="r" horiz-adv-x="724" 
d="M340 408v-408h-154v1018h152q0 -117 -23 -256l2 -2q35 129 124 210q90 80 237 64l-6 -151q-166 29 -249 -93t-83 -382z" />
    <glyph glyph-name="s" unicode="s" horiz-adv-x="876" 
d="M766 303q0 -139 -115 -230t-307 -91q-135 0 -227 26l18 142q103 -39 221 -39t186 47t66 120q0 74 -51 112t-124 57t-147 43t-124 85q-51 61 -51 162q0 133 102 216t291 83q92 0 201 -22l-15 -129q-102 31 -203 30q-219 0 -219 -161q0 -119 175 -165q73 -19 147 -45
t125 -86t51 -155z" />
    <glyph glyph-name="t" unicode="t" horiz-adv-x="757" 
d="M225 897h-221v121h221v338l154 43v-381h299v-121h-299v-549q0 -137 32 -183q33 -46 115 -46t144 16l18 -129q-104 -23 -199 -22q-151 0 -207 70t-57 231v612z" />
    <glyph glyph-name="u" unicode="u" horiz-adv-x="1181" 
d="M995 0h-151q0 129 16 227l-4 2q-45 -115 -139 -181t-225 -66q-305 0 -306 327v709h154v-658q0 -127 42 -189t148 -62q135 0 224 119q88 120 88 302v488h153v-1018z" />
    <glyph glyph-name="v" unicode="v" horiz-adv-x="978" 
d="M958 1018l-393 -1018h-159l-386 1018h175l237 -664q10 -33 57 -180h3q33 113 55 172l244 672h167z" />
    <glyph glyph-name="w" unicode="w" horiz-adv-x="1622" 
d="M1583 1018l-332 -1018h-178l-223 657q-18 51 -57 195h-2q-16 -72 -74 -256l-187 -596h-178l-315 1018h172l174 -606q53 -180 70 -250h2q39 154 69 250l195 606h174l197 -604q49 -152 73 -254h4q18 78 70 250l182 608h164z" />
    <glyph glyph-name="x" unicode="x" horiz-adv-x="1054" 
d="M1004 0h-203l-281 410l-280 -410h-191l385 510l-364 508h190l272 -402l279 402h176l-364 -502z" />
    <glyph glyph-name="y" unicode="y" horiz-adv-x="964" 
d="M53 -526q-47 0 -108 12l16 137q57 -14 135 -14t146 59t125 213l45 119l-389 1018h176l213 -584q37 -102 77 -241h3q25 88 102 309l182 516h168l-422 -1114q-90 -240 -194 -335t-275 -95z" />
    <glyph glyph-name="z" unicode="z" horiz-adv-x="913" 
d="M805 0h-705v109l518 776q-131 -4 -288 -4h-219v137h684v-107l-514 -774q123 4 294 4h230v-141z" />
    <glyph glyph-name="braceleft" unicode="{" horiz-adv-x="681" 
d="M614 -401h-34q-160 0 -229 92t-68 284v392q-1 117 -49 165t-173 58v123q129 8 176 53q46 45 46 168v266q0 375 297 375h34v-117q-110 0 -150 -54t-40 -198v-262q0 -254 -191 -291v-2q190 -31 191 -295v-387q0 -143 41 -197t149 -55v-118z" />
    <glyph glyph-name="bar" unicode="|" horiz-adv-x="581" 
d="M350 -510h-121v2048h121v-2048z" />
    <glyph glyph-name="braceright" unicode="}" horiz-adv-x="673" 
d="M414 367v-392q0 -190 -70 -283t-229 -93h-35v118q108 1 150 55t42 197v387q0 264 191 295v2q-190 27 -191 281v272q0 144 -42 198t-150 54v117h35q299 0 299 -375v-256q0 -129 46 -176t175 -55v-123q-125 -8 -173 -58t-48 -165z" />
    <glyph glyph-name="asciitilde" unicode="~" 
d="M1010 1155q0 -129 -71 -210t-187 -81t-190 81q-30 34 -55 69q-61 82 -136 82q-131 0 -135 -189h-115v13q1 130 71 210t188 80t188 -82q30 -34 56 -68q64 -82 136 -81q131 0 135 190h115v-14z" />
    <glyph glyph-name="nbspace" unicode="&#xa0;" horiz-adv-x="446" 
 />
    <glyph glyph-name="exclamdown" unicode="&#xa1;" horiz-adv-x="653" 
d="M399 -418h-184l29 1108h127zM418 928q0 -45 -32 -77t-78 -32t-78 31t-32 77t32 77q32 30 78 30t78 -30t32 -76z" />
    <glyph glyph-name="cent" unicode="&#xa2;" 
d="M700 0h-122v213q-199 12 -305 129q-105 117 -105 323q0 207 108 329t302 151v186h122v-182q125 -4 242 -49l-29 -131q-117 55 -261 55t-234 -87t-90 -255q0 -338 334 -338q143 0 258 66l38 -125q-123 -59 -258 -72v-213z" />
    <glyph glyph-name="sterling" unicode="&#xa3;" 
d="M977 0h-823v106q104 90 153 167t49 157t-16 168h-225v121h209q-27 152 -27 246q0 385 385 385q127 0 242 -35l-35 -131q-119 41 -221 41q-217 0 -217 -242q0 -76 30 -264h332v-121h-317q14 -72 14 -159t-40 -159t-128 -149q86 4 170 4h465v-135z" />
    <glyph glyph-name="currency" unicode="&#xa4;" 
d="M567 420q87 0 151 72t64 189q0 249 -225 249q-93 0 -153 -69t-60 -181q0 -260 223 -260zM557 303q-98 0 -160 31l-149 -201l-111 82l152 188q-84 95 -84 263t94 268l-162 201l109 82l155 -211q74 41 177 41t174 -39l157 209l107 -84l-164 -203q70 -90 70 -244t-84 -250
l178 -219l-111 -84l-166 225q-84 -55 -182 -55z" />
    <glyph glyph-name="yen" unicode="&#xa5;" 
d="M983 588v-109h-346v-153h346v-109h-346v-217h-156v217h-344v109h344v153h-344v109h307l-364 743h172l209 -440q39 -84 100 -244h2q43 115 115 260l205 424h166l-373 -743h307z" />
    <glyph glyph-name="brokenbar" unicode="&#xa6;" horiz-adv-x="581" 
d="M350 -510h-121v774h121v-774zM350 784h-121v754h121v-754z" />
    <glyph glyph-name="section" unicode="&#xa7;" horiz-adv-x="1056" 
d="M721 451q0 59 -34 123t-66 103q-33 38 -112 118t-106 108q-96 -68 -96 -171t70 -191q70 -89 146 -164q77 -75 102 -103q96 68 96 177zM868 471q0 -168 -161 -287q79 -110 79 -226t-94 -205t-264 -89q-72 0 -158 23l15 131q87 -27 163 -27t127 47q51 46 51 116
q1 117 -164 273q-70 66 -138 137q-164 171 -164 339t162 290q-82 109 -82 227t88 201q88 84 256 84q78 0 149 -16l-14 -131q-71 22 -149 22t-124 -43t-45 -111q0 -115 165 -275q70 -67 138 -137t116 -161q48 -90 48 -182z" />
    <glyph glyph-name="dieresis" unicode="&#xa8;" horiz-adv-x="1118" 
d="M449 1346q0 -41 -29 -70t-70 -29q-42 0 -70 29t-28 70q0 40 29 68t69 28t70 -28q29 -28 29 -68zM637 1346q0 40 29 68q30 28 70 28t69 -28t29 -69q0 -40 -29 -69t-70 -29t-69 29t-29 70z" />
    <glyph glyph-name="copyright" unicode="&#xa9;" horiz-adv-x="1542" 
d="M446 676q0 162 86 268t271 107q80 0 158 -25l-13 -115q-70 33 -153 33q-211 0 -211 -254t202 -254q90 0 168 31l15 -109q-92 -35 -201 -34q-166 0 -244 95t-78 257zM1325 684q0 231 -163 397t-394 166t-394 -163t-163 -396t163 -398t394 -165t394 164t163 395zM1450 689
q0 -283 -200 -483t-486 -200t-484 197q-196 197 -196 481t200 484q200 198 484 198t484 -196q198 -196 198 -481z" />
    <glyph glyph-name="ordfeminine" unicode="&#xaa;" horiz-adv-x="784" 
d="M506 1006v18q-268 0 -268 -131q0 -37 24 -59t70 -23q84 0 129 68t45 127zM694 461h-571v123h571v-123zM504 719q0 55 12 110l-4 2q-18 -51 -78 -90t-144 -39q-83 0 -133 46t-51 124q0 111 106 178t294 66v39q0 133 -137 133q-117 0 -213 -53l-11 121q99 41 237 41
q138 -1 196 -63t59 -160l-2 -277l2 -178h-133z" />
    <glyph glyph-name="guillemotleft" unicode="&#xab;" horiz-adv-x="1021" 
d="M473 311l-117 -65l-235 354l237 363l113 -64l-195 -297zM862 313l-114 -65l-254 352l256 358l112 -63l-211 -293z" />
    <glyph glyph-name="logicalnot" unicode="&#xac;" 
d="M981 217h-133v328h-760v129h893v-457z" />
    <glyph glyph-name="registered" unicode="&#xae;" horiz-adv-x="1150" 
d="M645 1186q0 63 -78 63h-47v-139h31q47 0 71 22t23 54zM520 1051v-203h-90v471h152q158 0 157 -121q0 -119 -116 -135q14 -18 43 -64l94 -151h-113l-121 203h-6zM905 1078q0 138 -97 238q-98 100 -234 101q-136 0 -233 -97q-97 -98 -97 -236t97 -238t234 -100t233 96
q96 98 97 236zM1014 1084q0 -183 -130 -312t-312 -129t-310 127q-127 127 -127 310q0 184 129 312t312 128t311 -126q127 -127 127 -310z" />
    <glyph glyph-name="macron" unicode="&#xaf;" horiz-adv-x="808" 
d="M655 1276h-501v117h501v-117z" />
    <glyph glyph-name="degree" unicode="&#xb0;" horiz-adv-x="759" 
d="M512 1251q0 61 -32 105t-96 45q-64 0 -102 -41t-38 -108q0 -66 36 -106t95 -40t98 42t39 103zM637 1252q0 -110 -81 -180q-82 -70 -192 -68q-110 0 -178 66t-68 180t79 184q77 70 193 70t182 -72q66 -70 65 -180z" />
    <glyph glyph-name="plusminus" unicode="&#xb1;" 
d="M1036 0h-946v129h946v-129zM1038 678h-403v-412h-143v412h-404v129h404v410h143v-410h403v-129z" />
    <glyph glyph-name="twosuperior" unicode="&#xb2;" horiz-adv-x="645" 
d="M535 731h-439v90l164 148q63 57 87 94t24 80t-29 69q-28 26 -88 27q-60 0 -109 -39l-41 98q92 50 195 50t159 -52t56 -131q0 -115 -131 -227l-109 -94h261v-113z" />
    <glyph glyph-name="threesuperior" unicode="&#xb3;" horiz-adv-x="620" 
d="M504 909q0 -94 -75 -143t-204 -49q-70 0 -127 14l19 100q66 -16 110 -16q133 0 133 88q0 59 -47 77t-166 9v90h50q152 0 151 92q0 35 -25 58q-26 23 -82 23t-106 -25l-29 88q72 33 171 33t151 -45t53 -113q0 -98 -94 -143q55 -9 86 -47t31 -91z" />
    <glyph glyph-name="acute" unicode="&#xb4;" horiz-adv-x="792" 
d="M559 1415l-283 -237l-71 79l262 259z" />
    <glyph glyph-name="paragraph" unicode="&#xb6;" horiz-adv-x="1165" 
d="M143 953q0 187 124 309t321 120v-862q-215 -2 -330 122t-115 311zM1032 1266h-147v-1463h-297v117h153v1462h291v-116z" />
    <glyph glyph-name="periodcentered" unicode="&#xb7;" horiz-adv-x="450" 
d="M342 608q0 -49 -34 -83q-34 -33 -83 -33t-83 34t-33 82q0 49 33 83q34 34 83 34t83 -34t34 -83z" />
    <glyph glyph-name="cedilla" unicode="&#xb8;" horiz-adv-x="819" 
d="M530 -84q141 -178 -45 -397h-129q57 72 81 124q49 106 -42 216z" />
    <glyph glyph-name="onesuperior" unicode="&#xb9;" horiz-adv-x="624" 
d="M408 731h-134v486l-147 -70l-33 100l193 84h121v-600z" />
    <glyph glyph-name="ordmasculine" unicode="&#xba;" horiz-adv-x="854" 
d="M596 1050q0 232 -172 232q-74 0 -125 -56t-51 -171q0 -229 168 -230q82 -1 131 59t49 166zM711 461h-576v123h576v-123zM739 1075q0 -172 -93 -271t-240 -99q-301 0 -302 350q0 152 92 248t227 96q136 0 226 -76t90 -248z" />
    <glyph glyph-name="guillemotright" unicode="&#xbb;" horiz-adv-x="1021" 
d="M528 606l-258 -358l-110 63l211 293l-209 289l114 65zM901 606l-239 -360l-113 63l196 295l-194 293l117 66z" />
    <glyph glyph-name="onequarter" unicode="&#xbc;" horiz-adv-x="1433" 
d="M408 731h-134v486l-147 -70l-33 100l193 84h121v-600zM1231 1296l-1016 -1337l-102 72l1015 1337zM1313 119h-111v-119h-125v119h-297l-6 90l240 391h188v-381h111v-100zM1077 219v289l-178 -289h178z" />
    <glyph glyph-name="onehalf" unicode="&#xbd;" horiz-adv-x="1443" 
d="M408 731h-134v486l-147 -70l-33 100l193 84h121v-600zM1229 1296l-1014 -1337l-102 72l1015 1337zM1305 0h-441v90l164 148q66 57 89 94q24 37 24 79q0 41 -30 69q-29 28 -89 28t-107 -41l-43 100q88 47 193 47t161 -52t56 -128q0 -115 -129 -227l-111 -96h263v-111z" />
    <glyph glyph-name="threequarters" unicode="&#xbe;" horiz-adv-x="1433" 
d="M506 909q0 -94 -74 -144t-203 -50q-72 0 -129 14l21 100q61 -16 110 -16q133 0 134 90q-1 59 -49 77t-166 9v90h49q152 0 151 92q0 80 -104 80q-57 0 -107 -24l-30 88q72 33 172 33t151 -45t51 -113q0 -98 -94 -143q55 -9 86 -47t31 -91zM1231 1296l-1016 -1337l-100 72
l1013 1337zM1313 119h-111v-119h-125v119h-297l-6 90l240 391h188v-381h111v-100zM1077 219v289l-178 -289h178z" />
    <glyph glyph-name="questiondown" unicode="&#xbf;" horiz-adv-x="907" 
d="M133 -43q0 79 31 145t75 107t92 92t83 97t46 123t-18 169h152q34 -98 24 -179t-43 -133q-61 -97 -167 -195q-105 -98 -105 -207t116 -183t304 -82l-21 -141q-256 8 -412 121t-157 266zM627 928q0 -45 -32 -77t-78 -32t-78 31q-31 31 -31 77t31 77q32 30 78 30t78 -30
t32 -76z" />
    <glyph glyph-name="Agrave" unicode="&#xc0;" horiz-adv-x="1251" 
d="M883 465l-201 557q-41 115 -61 186h-5q-27 -98 -59 -184l-203 -559h529zM1225 0h-178l-121 340h-615l-123 -340h-161l514 1382h170zM731 1583l-35 -90l-366 117l49 125z" />
    <glyph glyph-name="Aacute" unicode="&#xc1;" horiz-adv-x="1251" 
d="M883 465l-201 557q-41 115 -61 186h-5q-27 -98 -59 -184l-203 -559h529zM1225 0h-178l-121 340h-615l-123 -340h-161l514 1382h170zM899 1610l-367 -117l-32 90l350 152z" />
    <glyph glyph-name="Acircumflex" unicode="&#xc2;" horiz-adv-x="1251" 
d="M883 465l-201 557q-41 115 -61 186h-5q-27 -98 -59 -184l-203 -559h529zM1225 0h-178l-121 340h-615l-123 -340h-161l514 1382h170zM940 1583l-49 -94l-277 131l-266 -131l-45 88l315 172z" />
    <glyph glyph-name="Atilde" unicode="&#xc3;" horiz-adv-x="1251" 
d="M883 465l-201 557q-41 115 -61 186h-5q-27 -98 -59 -184l-203 -559h529zM1225 0h-178l-121 340h-615l-123 -340h-161l514 1382h170zM485 1622q-76 0 -133 -94l-82 59q80 143 219 144q76 1 156 -55t121 -56q72 0 131 94l82 -59q-82 -143 -219 -144q-76 -1 -156 55t-119 56
z" />
    <glyph glyph-name="Adieresis" unicode="&#xc4;" horiz-adv-x="1251" 
d="M883 465l-201 557q-41 115 -61 186h-5q-27 -98 -59 -184l-203 -559h529zM1225 0h-178l-121 340h-615l-123 -340h-161l514 1382h170zM496 1595q0 -39 -27 -67t-66 -27q-39 0 -67 28q-28 29 -27 67q0 38 28 66q29 28 67 28t65 -28t27 -67zM932 1595q0 -39 -27 -67t-67 -27
q-40 0 -66 28q-27 29 -27 67t27 66t67 28q41 0 67 -28t26 -67z" />
    <glyph glyph-name="Aring" unicode="&#xc5;" horiz-adv-x="1251" 
d="M883 465l-199 549q-27 51 -63 192h-5q-27 -98 -61 -192l-201 -549h529zM743 1503q0 49 -32 84q-33 35 -82 35t-82 -35t-33 -84t33 -84t82 -35t82 35q32 35 32 84zM630 1718q93 0 156 -61q64 -61 64 -136q1 -145 -117 -200l492 -1321h-178l-121 340h-615l-123 -340h-161
l491 1323q-111 51 -110 180q0 92 64 154q65 61 158 61z" />
    <glyph glyph-name="AE" unicode="&#xc6;" horiz-adv-x="1595" 
d="M741 471v778h-6q-68 -141 -139 -274l-274 -504h419zM1442 0h-701v346h-481l-186 -346h-164l752 1382h759v-127h-526v-479h506v-127h-506v-518h547v-131z" />
    <glyph glyph-name="Ccedilla" unicode="&#xc7;" horiz-adv-x="1208" 
d="M727 -84q141 -178 -45 -397h-129q57 72 81 124q48 105 -42 216zM100 668q0 324 167 526q167 203 505 203q166 0 324 -45l-27 -146q-168 57 -324 58q-239 0 -357 -162t-118 -425t123 -409t373 -145q170 0 317 74l31 -136q-178 -76 -389 -75q-311 0 -468 179t-157 503z" />
    <glyph glyph-name="Egrave" unicode="&#xc8;" horiz-adv-x="1034" 
d="M883 0h-697v1382h697v-127h-539v-479h512v-127h-512v-518h539v-131zM653 1583l-32 -90l-369 117l49 125z" />
    <glyph glyph-name="Eacute" unicode="&#xc9;" horiz-adv-x="1034" 
d="M883 0h-697v1382h697v-127h-539v-479h512v-127h-512v-518h539v-131zM811 1610l-367 -117l-32 90l350 152z" />
    <glyph glyph-name="Ecircumflex" unicode="&#xca;" horiz-adv-x="1034" 
d="M883 0h-697v1382h697v-127h-539v-479h512v-127h-512v-518h539v-131zM846 1583l-49 -94l-277 131l-266 -131l-45 88l315 172z" />
    <glyph glyph-name="Edieresis" unicode="&#xcb;" horiz-adv-x="1034" 
d="M883 0h-697v1382h697v-127h-539v-479h512v-127h-512v-518h539v-131zM397 1595q-1 -39 -27 -67t-66 -27q-40 0 -66 28q-26 29 -27 67q0 38 27 66q26 28 66 28t66 -28t27 -67zM834 1595q0 -39 -28 -67t-67 -27q-39 0 -65 28q-26 29 -27 67q0 38 27 66q28 28 66 28t66 -28
t28 -67z" />
    <glyph glyph-name="Igrave" unicode="&#xcc;" horiz-adv-x="530" 
d="M344 0h-158v1382h158v-1382zM383 1583l-33 -90l-368 117l51 125z" />
    <glyph glyph-name="Iacute" unicode="&#xcd;" horiz-adv-x="530" 
d="M344 0h-158v1382h158v-1382zM537 1610l-369 -117l-33 90l352 152z" />
    <glyph glyph-name="Icircumflex" unicode="&#xce;" horiz-adv-x="530" 
d="M344 0h-158v1382h158v-1382zM586 1583l-49 -94l-277 131l-266 -131l-45 88l315 172z" />
    <glyph glyph-name="Idieresis" unicode="&#xcf;" horiz-adv-x="530" 
d="M344 0h-158v1382h158v-1382zM139 1595q-1 -39 -27 -67t-66 -27q-40 0 -66 28q-26 29 -27 67q0 38 27 66q26 28 66 28t66 -28t27 -67zM575 1595q1 -39 -27 -67t-67 -27q-39 0 -65 28q-26 29 -27 67q0 38 27 66q28 28 66 28t66 -28t27 -67z" />
    <glyph glyph-name="Eth" unicode="&#xd0;" horiz-adv-x="1419" 
d="M1153 692q0 569 -563 570q-59 0 -225 -7v-483h303v-119h-303v-520q72 -10 198 -10q272 0 431 142t159 427zM1317 702q0 -346 -211 -527t-565 -181l-332 6v653h-207v119h207v610l397 7q344 0 528 -170q183 -171 183 -517z" />
    <glyph glyph-name="Ntilde" unicode="&#xd1;" horiz-adv-x="1456" 
d="M1270 0h-209l-576 918q-82 131 -157 282q12 -315 12 -776v-424h-154v1382h209l566 -897q66 -106 169 -295q-14 322 -14 814v378h154v-1382zM571 1622q-74 0 -131 -94l-82 59q80 143 220 144q74 1 154 -55t120 -56q72 0 131 94l82 -59q-82 -143 -219 -144q-74 -1 -154 55
t-121 56z" />
    <glyph glyph-name="Ograve" unicode="&#xd2;" horiz-adv-x="1443" 
d="M721 119q193 1 328 151t135 420t-122 424q-122 152 -328 152t-340 -151t-134 -415t117 -422q117 -159 344 -159zM1352 704q0 -333 -186 -528q-186 -194 -474 -194q-290 0 -445 185t-155 516t186 525t466 193q282 0 445 -182t163 -515zM844 1583l-33 -90l-369 117l50 125z
" />
    <glyph glyph-name="Oacute" unicode="&#xd3;" horiz-adv-x="1443" 
d="M721 119q193 1 328 151t135 420t-122 424q-122 152 -328 152t-340 -151t-134 -415t117 -422q117 -159 344 -159zM1352 704q0 -333 -186 -528q-186 -194 -474 -194q-290 0 -445 185t-155 516t186 525t466 193q282 0 445 -182t163 -515zM1016 1610l-369 -117l-33 90
l351 152z" />
    <glyph glyph-name="Ocircumflex" unicode="&#xd4;" horiz-adv-x="1443" 
d="M721 119q193 1 328 151t135 420t-122 424q-122 152 -328 152t-340 -151t-134 -415t117 -422q117 -159 344 -159zM1352 704q0 -333 -186 -528q-186 -194 -474 -194q-290 0 -445 185t-155 516t186 525t466 193q282 0 445 -182t163 -515zM1057 1583l-51 -94l-277 131
l-266 -131l-45 88l317 172z" />
    <glyph glyph-name="Otilde" unicode="&#xd5;" horiz-adv-x="1443" 
d="M721 119q193 1 328 151t135 420t-122 424q-122 152 -328 152t-340 -151t-134 -415t117 -422q117 -159 344 -159zM1352 704q0 -333 -186 -528q-186 -194 -474 -194q-290 0 -445 185t-155 516t186 525t466 193q282 0 445 -182t163 -515zM578 1622q-74 0 -132 -94l-81 59
q80 143 219 144q74 1 154 -55t120 -56q72 0 131 94l82 -59q-82 -143 -219 -144q-74 -1 -154 55t-120 56z" />
    <glyph glyph-name="Odieresis" unicode="&#xd6;" horiz-adv-x="1443" 
d="M721 119q193 1 328 151t135 420t-122 424q-122 152 -328 152t-340 -151t-134 -415t117 -422q117 -159 344 -159zM1352 704q0 -333 -186 -528q-186 -194 -474 -194q-290 0 -445 185t-155 516t186 525t466 193q282 0 445 -182t163 -515zM592 1595q0 -39 -27 -67t-67 -27
q-40 0 -66 28q-26 29 -26 67t26 66q27 28 67 28q41 0 67 -28t26 -67zM1028 1595q0 -39 -27 -67t-65 -27q-38 0 -67 28q-27 29 -27 67t27 66q28 28 67 28q40 0 66 -28t26 -67z" />
    <glyph glyph-name="multiply" unicode="&#xd7;" 
d="M1008 258l-95 -94l-354 354l-354 -354l-86 86l354 354l-354 354l94 95l354 -355l355 355l86 -86l-355 -355z" />
    <glyph glyph-name="Oslash" unicode="&#xd8;" horiz-adv-x="1443" 
d="M256 698q0 -375 203 -505l393 1056q-296 61 -468 -141q-128 -150 -128 -410zM1188 680q0 184 -58 320q-57 136 -165 200l-394 -1063q61 -20 150 -20q207 3 337 151t130 412zM1352 700q0 -338 -184 -528t-472 -190q-96 0 -172 20l-78 -213l-118 41l78 213
q-313 152 -314 637q0 334 184 528t463 193q82 0 160 -17l74 199l119 -41l-74 -196q160 -70 247 -234t87 -412z" />
    <glyph glyph-name="Ugrave" unicode="&#xd9;" horiz-adv-x="1427" 
d="M1241 524q0 -266 -138 -404t-425 -138t-398 151q-52 72 -73 150q-20 78 -21 176v923h158v-909q0 -170 79 -266t280 -96t293 92t91 309v870h154v-858zM838 1583l-33 -90l-367 117l49 125z" />
    <glyph glyph-name="Uacute" unicode="&#xda;" horiz-adv-x="1427" 
d="M1241 524q0 -266 -138 -404t-425 -138t-398 151q-52 72 -73 150q-20 78 -21 176v923h158v-909q0 -170 79 -266t280 -96t293 92t91 309v870h154v-858zM987 1610l-366 -117l-33 90l350 152z" />
    <glyph glyph-name="Ucircumflex" unicode="&#xdb;" horiz-adv-x="1427" 
d="M1241 524q0 -266 -138 -404t-425 -138t-398 151q-52 72 -73 150q-20 78 -21 176v923h158v-909q0 -170 79 -266t280 -96t293 92t91 309v870h154v-858zM1032 1583l-49 -94l-276 131l-267 -131l-45 88l316 172z" />
    <glyph glyph-name="Udieresis" unicode="&#xdc;" horiz-adv-x="1427" 
d="M1241 524q0 -266 -138 -404t-425 -138t-398 151q-52 72 -73 150q-20 78 -21 176v923h158v-909q0 -170 79 -266t280 -96t293 92t91 309v870h154v-858zM578 1595q0 -39 -27 -67t-67 -27q-40 0 -66 28q-26 29 -27 67q0 38 27 66q26 28 66 28t67 -28t27 -67zM1014 1595
q0 -39 -28 -67t-66 -27q-38 0 -66 28q-27 29 -27 67t27 66t66 28q38 0 66 -28t28 -67z" />
    <glyph glyph-name="Yacute" unicode="&#xdd;" horiz-adv-x="1079" 
d="M612 0h-155v500l-432 882h172l235 -493q47 -100 107 -244h2q29 72 121 266l227 471h166l-443 -880v-502zM842 1610l-369 -117l-33 90l353 152z" />
    <glyph glyph-name="Thorn" unicode="&#xde;" horiz-adv-x="1075" 
d="M872 739q0 303 -383 303q-86 0 -145 -10v-610q86 -8 150 -8q178 0 278 84t100 241zM1034 749q0 -208 -156 -336t-403 -128q-70 0 -131 6v-291h-158v1382h158v-215q119 4 178 4q242 0 377 -107t135 -315z" />
    <glyph glyph-name="germandbls" unicode="&#xdf;" horiz-adv-x="1202" 
d="M1112 299q0 -139 -108 -228t-295 -89q-111 0 -197 20l14 139q88 -33 198 -33t170 49t60 117t-43 115t-104 80t-123 69t-104 100q-43 64 -43 151q0 86 46 146t100 91t100 81t46 122q0 73 -56 113t-152 40q-281 0 -281 -344v-1038h-154v1028q0 250 121 364t307 114t279 -76
q94 -74 94 -204t-104 -209q-43 -32 -86 -59q-105 -66 -105 -151q0 -110 148 -186q62 -33 124 -70t105 -101t43 -151z" />
    <glyph glyph-name="agrave" unicode="&#xe0;" horiz-adv-x="1064" 
d="M645 1257l-72 -79l-282 237l90 101zM721 461v26q-465 0 -465 -213q0 -74 46 -120t120 -48q129 0 214 108t85 247zM729 0q0 156 10 215h-4q-39 -100 -134 -167q-95 -66 -219 -66t-202 74t-78 196q0 160 162 254t457 94v74q0 121 -52 180t-195 59t-284 -77l-34 127
q168 73 362 73t277 -87q82 -87 82 -242v-402q0 -215 4 -305h-152z" />
    <glyph glyph-name="aacute" unicode="&#xe1;" horiz-adv-x="1064" 
d="M762 1415l-283 -237l-71 79l262 259zM721 461v26q-465 0 -465 -213q0 -74 46 -120t120 -48q129 0 214 108t85 247zM729 0q0 156 10 215h-4q-39 -100 -134 -167q-95 -66 -219 -66t-202 74t-78 196q0 160 162 254t457 94v74q0 121 -52 180t-195 59t-284 -77l-34 127
q168 73 362 73t277 -87q82 -87 82 -242v-402q0 -215 4 -305h-152z" />
    <glyph glyph-name="acircumflex" unicode="&#xe2;" horiz-adv-x="1064" 
d="M795 1253l-74 -75l-201 176l-203 -176l-69 71l274 267zM721 461v26q-465 0 -465 -213q0 -74 46 -120t120 -48q129 0 214 108t85 247zM729 0q0 156 10 215h-4q-39 -100 -134 -167q-95 -66 -219 -66t-202 74t-78 196q0 160 162 254t457 94v74q0 121 -52 180t-195 59
t-284 -77l-34 127q168 73 362 73t277 -87q82 -87 82 -242v-402q0 -215 4 -305h-152z" />
    <glyph glyph-name="atilde" unicode="&#xe3;" horiz-adv-x="1064" 
d="M387 1343q-70 0 -125 -96l-80 64q82 150 215 149q72 0 148 -57t114 -57q72 0 127 96l78 -64q-82 -150 -213 -149q-73 0 -149 57t-115 57zM721 461v26q-465 0 -465 -213q0 -74 46 -120t120 -48q129 0 214 108t85 247zM729 0q0 156 10 215h-4q-39 -100 -134 -167
q-95 -66 -219 -66t-202 74t-78 196q0 160 162 254t457 94v74q0 121 -52 180t-195 59t-284 -77l-34 127q168 73 362 73t277 -87q82 -87 82 -242v-402q0 -215 4 -305h-152z" />
    <glyph glyph-name="adieresis" unicode="&#xe4;" horiz-adv-x="1064" 
d="M424 1346q0 -41 -29 -70t-69 -29t-70 29q-29 29 -29 70q0 40 29 68t70 28q42 0 70 -28t28 -68zM711 1442q41 0 69 -28t29 -69q0 -40 -29 -69q-30 -29 -70 -29t-69 29t-29 70q0 40 29 68t70 28zM721 461v26q-465 0 -465 -213q0 -74 46 -120t120 -48q129 0 214 108t85 247z
M729 0q0 156 10 215h-4q-39 -100 -134 -167q-95 -66 -219 -66t-202 74t-78 196q0 160 162 254t457 94v74q0 121 -52 180t-195 59t-284 -77l-34 127q168 73 362 73t277 -87q82 -87 82 -242v-402q0 -215 4 -305h-152z" />
    <glyph glyph-name="aring" unicode="&#xe5;" horiz-adv-x="1064" 
d="M641 1354q0 49 -33 84t-82 35t-82 -35q-32 -35 -32 -84t32 -84t82 -35q49 0 82 35t33 84zM748 1356q0 -90 -66 -154t-157 -63q-91 0 -155 61q-64 62 -65 154q0 92 65 153q66 61 158 61t156 -60q64 -62 64 -152zM721 461v26q-465 0 -465 -213q0 -74 46 -120t120 -48
q129 0 214 108t85 247zM729 0q0 156 10 215h-4q-39 -100 -134 -167q-95 -66 -219 -66t-202 74t-78 196q0 160 162 254t457 94v74q0 121 -52 180t-195 59t-284 -77l-34 127q168 73 362 73t277 -87q82 -87 82 -242v-402q0 -215 4 -305h-152z" />
    <glyph glyph-name="ae" unicode="&#xe6;" horiz-adv-x="1656" 
d="M721 461v26q-465 0 -465 -213q0 -74 46 -120t120 -48q129 0 214 108t85 247zM1156 920q-111 0 -183 -73t-92 -200h516q4 125 -63 199t-178 74zM874 535q-15 -424 328 -424q166 0 297 59l27 -125q-152 -63 -332 -63t-282 67q-101 68 -138 176h-2q-47 -102 -149 -173
q-101 -70 -233 -70t-210 74t-78 196q0 160 162 254t457 94v74q0 121 -52 180t-195 59t-284 -77l-34 127q168 74 358 73q248 0 313 -172h2q49 76 135 124t195 48q201 0 301 -119t99 -301q0 -8 -5 -81h-680z" />
    <glyph glyph-name="ccedilla" unicode="&#xe7;" horiz-adv-x="901" 
d="M541 -84q141 -178 -45 -397h-129q57 72 80 124q49 105 -41 216zM530 -14q-440 0 -440 487q0 256 126 408t359 151q147 0 261 -45l-31 -129q-125 49 -258 49q-133 -1 -214 -113t-81 -294q0 -383 309 -383q139 0 252 53l29 -127q-137 -57 -312 -57z" />
    <glyph glyph-name="egrave" unicode="&#xe8;" horiz-adv-x="1034" 
d="M651 1257l-71 -79l-283 237l90 101zM534 920q-112 0 -185 -73t-91 -200h516q4 125 -62 199t-178 74zM934 616q0 -45 -4 -81h-680q-14 -424 338 -424q154 0 289 59l26 -125q-156 -63 -346 -63q-467 0 -467 522q0 236 120 384t323 148t302 -119t99 -301z" />
    <glyph glyph-name="eacute" unicode="&#xe9;" horiz-adv-x="1034" 
d="M770 1415l-283 -237l-71 79l262 259zM534 920q-112 0 -185 -73t-91 -200h516q4 125 -62 199t-178 74zM934 616q0 -45 -4 -81h-680q-14 -424 338 -424q154 0 289 59l26 -125q-156 -63 -346 -63q-467 0 -467 522q0 236 120 384t323 148t302 -119t99 -301z" />
    <glyph glyph-name="ecircumflex" unicode="&#xea;" horiz-adv-x="1034" 
d="M803 1253l-74 -75l-201 176l-202 -176l-70 71l274 267zM534 920q-112 0 -185 -73t-91 -200h516q4 125 -62 199t-178 74zM934 616q0 -45 -4 -81h-680q-14 -424 338 -424q154 0 289 59l26 -125q-156 -63 -346 -63q-467 0 -467 522q0 236 120 384t323 148t302 -119t99 -301z
" />
    <glyph glyph-name="edieresis" unicode="&#xeb;" horiz-adv-x="1034" 
d="M442 1346q0 -41 -28 -70t-70 -29q-41 0 -70 29t-28 70q0 40 28 68t70 28t70 -28t28 -68zM729 1442q41 0 69 -28t29 -69q-1 -40 -29 -69t-69 -29t-70 29t-28 70q1 40 29 68t69 28zM534 920q-112 0 -185 -73t-91 -200h516q4 125 -62 199t-178 74zM934 616q0 -45 -4 -81
h-680q-14 -424 338 -424q154 0 289 59l26 -125q-156 -63 -346 -63q-467 0 -467 522q0 236 120 384t323 148t302 -119t99 -301z" />
    <glyph glyph-name="igrave" unicode="&#xec;" horiz-adv-x="526" 
d="M412 1257l-72 -79l-283 237l90 101zM340 0h-154v1018h154v-1018z" />
    <glyph glyph-name="iacute" unicode="&#xed;" horiz-adv-x="526" 
d="M463 1415l-283 -237l-71 79l262 259zM340 0h-154v1018h154v-1018z" />
    <glyph glyph-name="icircumflex" unicode="&#xee;" horiz-adv-x="526" 
d="M537 1253l-74 -75l-201 176l-203 -176l-69 71l274 267zM340 0h-154v1018h154v-1018z" />
    <glyph glyph-name="idieresis" unicode="&#xef;" horiz-adv-x="526" 
d="M172 1346q0 -41 -29 -70t-69 -29t-70 29q-29 29 -29 70q0 40 29 68t70 28q42 0 70 -28t28 -68zM459 1442q41 0 69 -28t29 -69q0 -40 -29 -69q-30 -29 -70 -29t-69 29t-29 70q0 40 29 68t70 28zM340 0h-154v1018h154v-1018z" />
    <glyph glyph-name="eth" unicode="&#xf0;" horiz-adv-x="1112" 
d="M246 516q0 -192 84 -298t224 -105q140 -1 223 103t83 298t-78 295q-78 100 -217 100t-229 -101q-90 -100 -90 -292zM1018 555q0 -281 -132 -427t-344 -146t-334 132t-122 374t129 395q129 152 348 151q174 0 236 -104q-8 16 -66 112q-51 94 -139 191l-217 -98l-66 86
l201 90q-55 53 -172 141l158 68q78 -63 159 -146l213 94l68 -86l-207 -90q287 -338 287 -737z" />
    <glyph glyph-name="ntilde" unicode="&#xf1;" horiz-adv-x="1181" 
d="M463 1343q-70 0 -125 -96l-80 64q82 150 215 149q72 0 148 -57t114 -57q72 0 127 96l78 -64q-82 -150 -213 -149q-73 0 -149 57t-115 57zM995 0h-153v657q0 127 -42 189t-149 63q-135 1 -223 -119t-88 -303v-487h-154v1018h152q0 -129 -16 -227l4 -3q45 115 139 182
t225 66q305 0 305 -327v-709z" />
    <glyph glyph-name="ograve" unicode="&#xf2;" horiz-adv-x="1110" 
d="M688 1257l-72 -79l-282 237l90 101zM862 510q0 192 -78 296t-218 103q-140 0 -230 -100t-90 -294t81 -298t220 -104t227 102q88 103 88 295zM1022 542q0 -248 -133 -405q-133 -155 -349 -155t-335 131t-119 373t132 397q132 153 344 153t336 -123t124 -371z" />
    <glyph glyph-name="oacute" unicode="&#xf3;" horiz-adv-x="1110" 
d="M801 1415l-283 -237l-72 79l263 259zM862 510q0 192 -78 296t-218 103q-140 0 -230 -100t-90 -294t81 -298t220 -104t227 102q88 103 88 295zM1022 542q0 -248 -133 -405q-133 -155 -349 -155t-335 131t-119 373t132 397q132 153 344 153t336 -123t124 -371z" />
    <glyph glyph-name="ocircumflex" unicode="&#xf4;" horiz-adv-x="1110" 
d="M827 1253l-73 -75l-201 176l-203 -176l-69 71l274 267zM862 510q0 192 -78 296t-218 103q-140 0 -230 -100t-90 -294t81 -298t220 -104t227 102q88 103 88 295zM1022 542q0 -248 -133 -405q-133 -155 -349 -155t-335 131t-119 373t132 397q132 153 344 153t336 -123
t124 -371z" />
    <glyph glyph-name="otilde" unicode="&#xf5;" horiz-adv-x="1110" 
d="M426 1343q-70 0 -125 -96l-80 64q82 150 215 149q72 0 148 -57t114 -57q72 0 127 96l78 -64q-82 -150 -213 -149q-72 0 -148 57t-116 57zM862 510q0 192 -78 296t-218 103q-140 0 -230 -100t-90 -294t81 -298t220 -104t227 102q88 103 88 295zM1022 542q0 -248 -133 -405
q-133 -155 -349 -155t-335 131t-119 373t132 397q132 153 344 153t336 -123t124 -371z" />
    <glyph glyph-name="odieresis" unicode="&#xf6;" horiz-adv-x="1110" 
d="M459 1346q0 -41 -29 -70t-70 -29q-42 0 -70 29t-28 70q0 40 29 68t69 28t70 -28q29 -28 29 -68zM647 1346q0 40 29 68q30 28 70 28t69 -28t29 -69q0 -40 -29 -69t-70 -29t-69 29t-29 70zM862 510q0 192 -78 296t-218 103q-140 0 -230 -100t-90 -294t81 -298t220 -104
t227 102q88 103 88 295zM1022 542q0 -248 -133 -405q-133 -155 -349 -155t-335 131t-119 373t132 397q132 153 344 153t336 -123t124 -371z" />
    <glyph glyph-name="divide" unicode="&#xf7;" 
d="M670 197q0 -45 -32 -78t-78 -33t-78 33t-31 78q-1 45 31 77t77 31q45 1 78 -31t33 -77zM1038 545h-950v129h950v-129zM670 1020q0 -45 -32 -77t-78 -32t-78 32t-31 77q0 45 31 77q32 31 78 31t78 -32t32 -76z" />
    <glyph glyph-name="oslash" unicode="&#xf8;" horiz-adv-x="1110" 
d="M238 500q0 -217 112 -316l275 721q-185 28 -298 -93q-89 -95 -89 -312zM870 516q0 256 -143 348l-281 -737q49 -20 121 -21q127 4 215 108t88 302zM1022 526q0 -233 -134 -389t-351 -155q-70 0 -138 20l-82 -213l-106 35l84 217q-209 123 -209 463q0 227 131 380t354 152
q45 0 101 -10l73 193l107 -35l-74 -191q244 -113 244 -467z" />
    <glyph glyph-name="ugrave" unicode="&#xf9;" horiz-adv-x="1181" 
d="M674 1257l-72 -79l-283 237l91 101zM995 0h-151q0 129 16 227l-4 2q-45 -115 -139 -181t-225 -66q-305 0 -306 327v709h154v-658q0 -127 42 -189t148 -62q135 0 224 119q88 120 88 302v488h153v-1018z" />
    <glyph glyph-name="uacute" unicode="&#xfa;" horiz-adv-x="1181" 
d="M870 1415l-282 -237l-72 79l262 259zM995 0h-151q0 129 16 227l-4 2q-45 -115 -139 -181t-225 -66q-305 0 -306 327v709h154v-658q0 -127 42 -189t148 -62q135 0 224 119q88 120 88 302v488h153v-1018z" />
    <glyph glyph-name="ucircumflex" unicode="&#xfb;" horiz-adv-x="1181" 
d="M858 1253l-74 -75l-200 176l-203 -176l-70 71l275 267zM995 0h-151q0 129 16 227l-4 2q-45 -115 -139 -181t-225 -66q-305 0 -306 327v709h154v-658q0 -127 42 -189t148 -62q135 0 224 119q88 120 88 302v488h153v-1018z" />
    <glyph glyph-name="udieresis" unicode="&#xfc;" horiz-adv-x="1181" 
d="M489 1346q-1 -41 -29 -70t-69 -29t-69 29t-29 70q0 40 29 68q30 28 70 28t68 -28t29 -68zM678 1346q0 40 29 68t69 28t70 -28q28 -28 28 -69q0 -40 -28 -69t-70 -29t-70 29t-28 70zM995 0h-151q0 129 16 227l-4 2q-45 -115 -139 -181t-225 -66q-305 0 -306 327v709h154
v-658q0 -127 42 -189t148 -62q135 0 224 119q88 120 88 302v488h153v-1018z" />
    <glyph glyph-name="yacute" unicode="&#xfd;" horiz-adv-x="964" 
d="M748 1415l-283 -237l-72 79l262 259zM53 -526q-47 0 -108 12l16 137q57 -14 135 -14t146 59t125 213l45 119l-389 1018h176l213 -584q37 -102 77 -241h3q25 88 102 309l182 516h168l-422 -1114q-90 -240 -194 -335t-275 -95z" />
    <glyph glyph-name="thorn" unicode="&#xfe;" horiz-adv-x="1142" 
d="M887 543q0 367 -244 366q-141 0 -222 -132t-81 -285v-357q86 -27 199 -26q348 0 348 434zM674 1036q180 0 278 -122t97 -376t-139 -402t-382 -148q-109 0 -188 14v-512h-154v2005h154v-459q0 -162 -14 -233l4 -2q43 109 134 172t210 63z" />
    <glyph glyph-name="ydieresis" unicode="&#xff;" horiz-adv-x="964" 
d="M387 1346q0 -41 -29 -70q-30 -29 -70 -29t-69 29t-29 70q0 40 29 68t70 28t69 -28t29 -68zM674 1442q42 0 70 -28t28 -69q0 -40 -29 -69t-69 -29t-70 29q-29 29 -29 70q0 40 29 68t70 28zM53 -526q-47 0 -108 12l16 137q57 -14 135 -14t146 59t125 213l45 119l-389 1018
h176l213 -584q37 -102 77 -241h3q25 88 102 309l182 516h168l-422 -1114q-90 -240 -194 -335t-275 -95z" />
    <glyph glyph-name="dotlessi" unicode="&#x131;" horiz-adv-x="526" 
d="M340 0h-154v1018h154v-1018z" />
    <glyph glyph-name="Lslash" unicode="&#x141;" horiz-adv-x="905" 
d="M893 0h-672v594l-201 -72l-30 115l231 82v663h158v-612l252 88l31 -117l-283 -98v-510h514v-133z" />
    <glyph glyph-name="lslash" unicode="&#x142;" horiz-adv-x="598" 
d="M375 0h-152v596l-205 -72l-26 117l231 80v774h152v-725l205 72l26 -117l-231 -80v-645z" />
    <glyph glyph-name="OE" unicode="&#x152;" horiz-adv-x="1769" 
d="M725 1266q-195 0 -330 -151t-135 -415t117 -422q117 -159 344 -159q101 -1 203 26v1092q-98 29 -199 29zM1618 0h-688q-115 -18 -225 -18q-303 0 -458 185t-155 515t184 524t461 195q111 0 205 -19h676v-127h-539v-479h512v-127h-512v-518h539v-131z" />
    <glyph glyph-name="oe" unicode="&#x153;" horiz-adv-x="1798" 
d="M862 510q0 192 -78 296t-218 103q-140 0 -230 -100t-90 -294t81 -298t220 -104t227 102q88 103 88 295zM1296 920q-114 0 -186 -73t-90 -200h518q4 125 -62 199q-67 74 -180 74zM1698 616q0 -8 -4 -81h-680q-14 -424 336 -424q156 0 290 59l25 -125q-152 -63 -344 -63
q-295 0 -399 225q-125 -225 -387 -225q-211 0 -330 130t-119 374t131 398q131 153 354 152q121 0 221 -52t152 -157q119 209 356 209q198 0 298 -119t100 -301z" />
    <glyph glyph-name="Scaron" unicode="&#x160;" horiz-adv-x="1032" 
d="M922 397q0 -182 -138 -299t-364 -116q-160 0 -299 41l22 151q139 -55 285 -55t237 63t91 197q0 155 -228 243q-94 36 -188 76t-161 119q-67 80 -66 201q0 170 124 276t345 107q125 0 247 -27l-18 -141q-121 37 -254 37t-208 -62t-75 -172q0 -74 48 -128t120 -83t156 -65
t156 -75q72 -38 120 -112t48 -176zM854 1661l-315 -172l-322 168l49 92l277 -131l266 131z" />
    <glyph glyph-name="scaron" unicode="&#x161;" horiz-adv-x="876" 
d="M721 1442l-275 -264l-270 262l74 76l201 -177l200 177zM766 303q0 -139 -115 -230t-307 -91q-135 0 -227 26l18 142q103 -39 221 -39t186 47t66 120q0 74 -51 112t-124 57t-147 43t-124 85q-51 61 -51 162q0 133 102 216t291 83q92 0 201 -22l-15 -129q-102 31 -203 30
q-219 0 -219 -161q0 -119 175 -165q73 -19 147 -45t125 -86t51 -155z" />
    <glyph glyph-name="Ydieresis" unicode="&#x178;" horiz-adv-x="1079" 
d="M612 0h-155v500l-432 882h172l235 -493q47 -100 107 -244h2q29 72 121 266l227 471h166l-443 -880v-502zM410 1595q0 -39 -27 -67t-67 -27q-40 0 -68 28q-28 29 -27 67q0 38 28 66q27 28 67 28t67 -28t27 -67zM846 1595q0 -39 -28 -67t-66 -27q-38 0 -67 28
q-28 29 -28 67t28 66t67 28q38 0 66 -28t28 -67z" />
    <glyph glyph-name="Zcaron" unicode="&#x17d;" horiz-adv-x="1105" 
d="M1014 0h-920v115l613 952l122 180q-147 -4 -323 -4h-389v139h891v-116l-646 -996q-16 -26 -48 -72t-40 -61q45 6 363 6h377v-143zM893 1661l-318 -172l-321 168l51 92l277 -131l266 131z" />
    <glyph glyph-name="zcaron" unicode="&#x17e;" horiz-adv-x="913" 
d="M727 1442l-274 -264l-271 262l74 76l201 -177l200 177zM805 0h-705v109l518 776q-131 -4 -288 -4h-219v137h684v-107l-514 -774q123 4 294 4h230v-141z" />
    <glyph glyph-name="florin" unicode="&#x192;" 
d="M840 1311q-94 -1 -146 -61t-67 -193l-33 -338h313v-121h-323l-49 -526q-21 -207 -121 -303t-281 -97q-90 0 -186 29l24 129q101 -31 195 -31q94 1 146 61t65 191l51 547h-235v121h247l33 319q19 205 119 301t280 97q89 0 185 -27l-25 -131q-98 33 -192 33z" />
    <glyph glyph-name="circumflex" unicode="&#x2c6;" horiz-adv-x="892" 
d="M715 1253l-74 -75l-201 176l-202 -176l-70 71l274 267z" />
    <glyph glyph-name="caron" unicode="&#x2c7;" horiz-adv-x="892" 
d="M709 1442l-275 -264l-270 262l74 76l200 -177l201 177z" />
    <glyph glyph-name="breve" unicode="&#x2d8;" horiz-adv-x="841" 
d="M668 1470q0 -112 -64 -186t-186 -74q-123 0 -184 75q-60 75 -60 185h109q-1 -59 35 -100t100 -41t102 37q37 37 37 104h111z" />
    <glyph glyph-name="dotaccent" unicode="&#x2d9;" horiz-adv-x="577" 
d="M180 1345q0 45 31 75t75 30t74 -30t31 -73q0 -44 -31 -75q-30 -31 -74 -31t-75 30t-31 74z" />
    <glyph glyph-name="ring" unicode="&#x2da;" horiz-adv-x="798" 
d="M514 1339q0 49 -33 84t-82 35t-82 -35t-33 -84t34 -84q32 -35 81 -35t82 36q33 34 33 83zM178 1339q0 91 65 153t157 62t157 -62q64 -62 64 -151q0 -90 -66 -153q-66 -64 -157 -64q-92 0 -156 62t-64 153z" />
    <glyph glyph-name="ogonek" unicode="&#x2db;" horiz-adv-x="571" 
d="M240 -424q-82 0 -127 41t-45 110t45 143t129 130h172q-94 -54 -140 -116t-47 -113q0 -68 64 -68q53 0 102 59l72 -67q-90 -119 -225 -119z" />
    <glyph glyph-name="tilde" unicode="&#x2dc;" horiz-adv-x="1038" 
d="M375 1343q-70 0 -125 -96l-80 64q82 150 215 149q71 0 147 -57t115 -57q72 0 127 96l78 -64q-82 -150 -213 -149q-72 0 -149 57t-115 57z" />
    <glyph glyph-name="hungarumlaut" unicode="&#x2dd;" horiz-adv-x="999" 
d="M502 1436l-254 -258l-78 69l231 275zM860 1423l-270 -245l-78 69l250 264z" />
    <glyph glyph-name="Delta" unicode="&#x394;" horiz-adv-x="1478" 
d="M1182 137l-455 1127l-442 -1127h897zM1407 0h-1335l579 1434h168z" />
    <glyph glyph-name="Omega" unicode="&#x3a9;" horiz-adv-x="1533" 
d="M1386 0h-458v125q295 201 295 584q0 247 -118 409t-333 162t-343 -156t-128 -383t71 -367t230 -249v-125h-465v117h312q-145 94 -224 248q-78 154 -78 348q1 305 175 496t451 191t442 -175q165 -176 165 -496q0 -203 -84 -363t-223 -249h313v-117z" />
    <glyph glyph-name="mu" unicode="&#x3bc;" horiz-adv-x="1282" 
d="M1002 -18q-86 0 -119 68t-15 165h-2q-39 -103 -129 -167t-214 -64t-193 65l22 -559h-162v1528h154v-643q0 -131 47 -198t166 -67t204 112t85 267v529h153v-733q1 -98 15 -134t49 -36q59 0 92 80l76 -58q-27 -67 -85 -111t-144 -44z" />
    <glyph glyph-name="pi" unicode="&#x3c0;" horiz-adv-x="1378" 
d="M1077 -16q-117 0 -161 66t-44 220v625h-409v-895h-148v895h-233v123h1171v-123h-233v-492q0 -197 20 -249t89 -52t128 19l11 -119q-74 -18 -191 -18z" />
    <glyph glyph-name="endash" unicode="&#x2013;" 
d="M1126 543h-1126v133h1126v-133z" />
    <glyph glyph-name="emdash" unicode="&#x2014;" horiz-adv-x="2048" 
d="M1800 543h-1552v133h1552v-133z" />
    <glyph glyph-name="quoteleft" unicode="&#x2018;" horiz-adv-x="479" 
d="M222 1026q-66 0 -96 67t17 189t183 248l67 -60q-170 -184 -90 -286q39 -50 12 -104t-93 -54z" />
    <glyph glyph-name="quoteright" unicode="&#x2019;" horiz-adv-x="479" 
d="M254 1518q66 0 96 -67t-16 -189q-47 -122 -182 -248l-68 59q166 182 90 287q-39 50 -12 104q26 54 92 54z" />
    <glyph glyph-name="quotesinglbase" unicode="&#x201a;" horiz-adv-x="479" 
d="M254 203q66 0 96 -67q30 -66 -16 -188q-47 -122 -182 -249l-68 59q166 182 90 287q-39 49 -12 103q26 54 92 55z" />
    <glyph glyph-name="quotedblleft" unicode="&#x201c;" horiz-adv-x="845" 
d="M222 1026q-66 0 -96 67t17 189t183 248l67 -60q-170 -184 -90 -286q39 -50 12 -104t-93 -54zM588 1026q-66 0 -96 67t16 189q47 122 182 248l68 -60q-168 -182 -88 -286q37 -50 11 -104q-27 -54 -93 -54z" />
    <glyph glyph-name="quotedblright" unicode="&#x201d;" horiz-adv-x="845" 
d="M254 1518q66 0 96 -67t-16 -189q-47 -122 -182 -248l-68 59q166 182 90 287q-39 50 -12 104q26 54 92 54zM620 1518q66 0 97 -67t-17 -189t-182 -248l-69 59q170 182 90 287q-37 50 -11 104t92 54z" />
    <glyph glyph-name="quotedblbase" unicode="&#x201e;" horiz-adv-x="845" 
d="M254 203q66 0 96 -67q30 -66 -16 -188q-47 -122 -182 -249l-68 59q166 182 90 287q-39 49 -12 103q26 54 92 55zM620 203q66 0 97 -67q31 -66 -17 -188t-182 -249l-69 59q170 182 90 287q-37 49 -11 103t92 55z" />
    <glyph glyph-name="dagger" unicode="&#x2020;" horiz-adv-x="911" 
d="M807 1159h-291l31 -207l-35 -510h-113l-34 510l30 207h-291v121h291l-30 281h182l-31 -281h291v-121z" />
    <glyph glyph-name="daggerdbl" unicode="&#x2021;" horiz-adv-x="911" 
d="M807 612h-291l31 -272h-182l30 272h-291v121h291l-30 217l30 219h-291v119h291l-30 273h182l-31 -273h291v-119h-291l31 -219l-31 -217h291v-121z" />
    <glyph glyph-name="bullet" unicode="&#x2022;" horiz-adv-x="858" 
d="M655 608q-1 -94 -67 -160t-159 -65q-93 0 -159 66q-66 65 -66 159t66 160t159 66t159 -66t67 -160z" />
    <glyph glyph-name="ellipsis" unicode="&#x2026;" horiz-adv-x="1314" 
d="M330 92q0 -45 -33 -77q-33 -31 -78 -31t-77 32t-31 76q0 45 31 77q32 32 78 32t78 -32t32 -77zM754 93q0 -46 -32 -78q-32 -31 -77 -31t-77 32t-31 76q0 45 31 77q32 32 78 32t77 -31t31 -77zM1180 92q0 -45 -32 -77q-32 -31 -77 -31t-78 32t-32 76q0 45 31 77
q32 32 78 32t78 -32t32 -77z" />
    <glyph glyph-name="perthousand" unicode="&#x2030;" horiz-adv-x="2078" 
d="M102 1026q0 148 82 236t203 88t191 -70t71 -222q0 -151 -81 -238q-82 -87 -204 -87t-192 72t-70 221zM522 1042q0 201 -143 201q-70 0 -109 -55t-39 -148q0 -201 144 -200q71 0 109 55t38 147zM1298 1286l-1087 -1317l-96 74l1085 1319zM1311 307q0 -149 -81 -237
t-204 -88q-122 0 -192 72t-70 220t81 236t202 88q264 0 264 -291zM1184 293q0 199 -144 199q-68 0 -108 -54t-39 -147q0 -203 143 -203q70 0 109 56t39 149zM1694 598q122 0 192 -70t70 -220t-81 -238t-203 -88t-192 72t-71 221q0 147 82 235t203 88zM1829 293
q0 199 -143 199q-68 0 -108 -54t-40 -147q0 -203 143 -203q70 0 109 56t39 149z" />
    <glyph glyph-name="guilsinglleft" unicode="&#x2039;" horiz-adv-x="641" 
d="M479 315l-112 -67l-246 352l248 361l110 -66l-205 -293z" />
    <glyph glyph-name="guilsinglright" unicode="&#x203a;" horiz-adv-x="641" 
d="M522 606l-250 -358l-110 65l205 291l-203 289l115 68z" />
    <glyph glyph-name="fraction" unicode="&#x2044;" horiz-adv-x="843" 
d="M993 1350l-970 -1399l-109 78l971 1398z" />
    <glyph glyph-name="uni20AC" unicode="&#x20ac;" 
d="M371 465q53 -352 353 -352q148 0 286 59l39 -121q-162 -70 -334 -69q-449 0 -506 483h-186v106h178q-2 19 -2 67t4 130h-180v106h194q39 220 171 348t362 128q150 0 278 -56l-41 -123q-117 53 -264 54q-283 0 -346 -351h409v-106h-426q-2 -35 -2 -106v-91h428v-106h-415z
" />
    <glyph glyph-name="trademark" unicode="&#x2122;" horiz-adv-x="1437" 
d="M537 1286h-154v-479h-123v479h-158v96h435v-96zM1321 807h-123l-63 438l-25 -98l-104 -340h-127l-101 344l-24 94l-6 -76l-54 -362h-112l88 575h157l101 -340l22 -98l19 88l108 350h156z" />
    <glyph glyph-name="partialdiff" unicode="&#x2202;" horiz-adv-x="1306" 
d="M602 115q134 0 228 107q94 106 94 246t-76 217t-214 77t-227 -98t-89 -246t75 -226q76 -78 209 -77zM1149 844q0 -422 -180 -662q-68 -90 -171 -144t-225 -54q-199 0 -304 112t-105 316q0 203 135 341t348 138q125 0 213 -58t127 -159q2 72 2 186q-8 256 -136 389
t-331 129l15 127q283 -4 447 -179t165 -482z" />
    <glyph glyph-name="product" unicode="&#x220f;" horiz-adv-x="1605" 
d="M1509 1362h-223v-1872h-149v1872h-668v-1872h-150v1872h-223v133h1413v-133z" />
    <glyph glyph-name="summation" unicode="&#x2211;" horiz-adv-x="1249" 
d="M1128 -510h-1054v119l647 901l-608 866v119h987v-133h-793l596 -846l-643 -887h868v-139z" />
    <glyph glyph-name="minus" unicode="&#x2212;" 
d="M1038 543h-950v133h950v-133z" />
    <glyph glyph-name="radical" unicode="&#x221a;" horiz-adv-x="1239" 
d="M2 899v119h313l207 -617q53 -164 76 -245h4q13 59 60 227l337 1169h166l-481 -1552h-176l-315 899h-191z" />
    <glyph glyph-name="infinity" unicode="&#x221e;" horiz-adv-x="1988" 
d="M483 807q-92 0 -145 -55q-53 -54 -53 -140t54 -141q53 -55 141 -55t176 49t218 143q-90 66 -142 102t-123 66t-126 31zM1706 613q0 85 -55 139t-154 55q-125 0 -381 -193q90 -68 142 -102q147 -97 244 -97q97 1 151 57q53 56 53 141zM1509 942q169 0 261 -92t92 -232
t-98 -238t-265 -97q-117 0 -239 61t-271 176q-151 -113 -271 -175t-239 -62q-170 0 -261 91t-91 232q0 140 99 238t261 98q119 0 241 -62t273 -178q150 112 271 176t237 64z" />
    <glyph glyph-name="integral" unicode="&#x222b;" horiz-adv-x="688" 
d="M545 1374q-55 0 -88 -26q-64 -51 -66 -336q0 -148 11 -462q12 -314 12 -576t-74 -381q-74 -120 -231 -119q-53 0 -105 10v137q53 -16 102 -16q88 -1 124 69t36 244t-11 498t-11 586t74 382t233 121q55 0 102 -12v-135q-53 16 -108 16z" />
    <glyph glyph-name="approxequal" unicode="&#x2248;" 
d="M344 434q-86 0 -192 -86l-52 109q123 111 254 110q98 0 221 -63q123 -64 212 -64t188 82l51 -110q-126 -100 -244 -100t-235 60q-117 62 -203 62zM770 649q-102 -1 -219 61t-208 62t-191 -86l-52 111q121 109 258 108q98 0 222 -63q124 -64 204 -64q82 0 189 92l53 -108
q-113 -113 -256 -113z" />
    <glyph glyph-name="notequal" unicode="&#x2260;" 
d="M1014 379h-477l-121 -299h-135l120 299h-288v127h340l79 205h-419v129h471l123 305h137l-123 -305h293v-129h-344l-82 -205h426v-127z" />
    <glyph glyph-name="lessequal" unicode="&#x2264;" 
d="M989 0h-852v129h852v-129zM965 360l-84 -114l-762 499l760 502l86 -106l-621 -393z" />
    <glyph glyph-name="greaterequal" unicode="&#x2265;" 
d="M989 0h-852v129h852v-129zM1008 748l-760 -502l-86 108l620 391l-620 388l84 114z" />
    <glyph glyph-name="lozenge" unicode="&#x25ca;" horiz-adv-x="1261" 
d="M1018 676l-397 555l-373 -529l395 -548zM1184 686l-498 -702h-96l-512 714l502 701h92z" />
    <glyph glyph-name="fi" unicode="&#xfb01;" horiz-adv-x="1204" 
d="M1018 0h-154v897h-475v-897h-153v897h-222v121h222v49q0 438 462 438q139 0 277 -37l-31 -129q-127 41 -248 41q-307 0 -307 -293v-69h629v-1018z" />
    <glyph glyph-name="fl" unicode="&#xfb02;" horiz-adv-x="1204" 
d="M1018 0h-154v1366q-102 16 -188 16q-147 0 -217 -61t-70 -197v-106h297v-121h-297v-897h-153v897h-222v121h222v125q0 172 113 267q114 95 341 95q154 0 328 -26v-1479z" />
    <glyph glyph-name="HT" horiz-adv-x="1443" 
 />
    <glyph glyph-name="Euro" 
d="M371 465q53 -352 353 -352q148 0 286 59l39 -121q-162 -70 -334 -69q-449 0 -506 483h-186v106h178q-2 19 -2 67t4 130h-180v106h194q39 220 171 348t362 128q150 0 278 -56l-41 -123q-117 53 -264 54q-283 0 -346 -351h409v-106h-426q-2 -35 -2 -106v-91h428v-106h-415z
" />
    <glyph glyph-name="apple" horiz-adv-x="2129" 
d="M51 745l242 -14v-74l-242 -14q-4 53 0 102zM1087 727q4 0 5 10q0 10 -5 11q6 -11 0 -21zM1085 741q-6 0 -3 -4t-1 -4v-2q6 2 4 8v2zM1075 733v-2h2v6q0 10 -8 2q4 0 6 -2q-4 0 -6 -4h6zM1065 738q0 -10 4 -11q-6 10 0 21q-4 0 -4 -10zM1061 733q-2 0 -2 2t2 4v2
q-4 2 -4 -3t4 -7v2zM1053 741h-2v-6h-2v6h-2v-6q2 -4 6 0v6zM1044 731v2h-4v12h-2v-14h6zM1333 -82l-35 82l-499 -127l53 -131h430l29 72l-15 30l-155 -41l-23 62zM1333 78l-37 90l-499 -129l37 -86zM1325 319h-518v-116l33 -82l485 123v75zM1065 698q-57 0 -94 -6l28 -301
h131l29 301q-37 6 -94 6zM1064 776q106 0 257 -39q10 -3 12 -25t-6 -41t-24 -16q-16 10 -78 25l-31 -289h129q137 125 137 296t-114 287q-115 116 -279 116t-281 -116q-116 -116 -116 -291t141 -292h127l-33 289l-74 -25q-16 -7 -24 13t-5 44t13 25q143 39 249 39zM1548 689
q0 -204 -139 -335v-155l-33 -11l64 -151l-60 -14l60 -146l-62 -16l23 -51l-60 -136h-100q-4 -36 -54 -62t-121 -26t-121 26t-54 62h-100l-99 242l62 16l-64 152l70 16l-39 95v159q-139 143 -139 342t141 340q141 142 342 142t342 -142t141 -347zM2079 745q2 -35 2 -102
l-242 14q4 37 0 74zM1575 1257l158 177q47 -41 71 -72l-176 -158q-24 28 -53 53zM1104 1434h-76l-12 237q53 4 100 0zM326 1364q41 47 71 72l160 -181q-25 -20 -53 -51z" />
    <glyph glyph-name="Grave" horiz-adv-x="753" 
d="M559 1583l-33 -90l-368 117l49 125z" />
    <glyph glyph-name="Acute" horiz-adv-x="792" 
d="M592 1610l-367 -117l-32 90l350 152z" />
    <glyph glyph-name="Dieresis" horiz-adv-x="1118" 
d="M416 1595q0 -39 -28 -67t-66 -27q-38 0 -66 28q-27 29 -27 67t27 66t66 28q38 0 66 -28t28 -67zM852 1595q0 -39 -27 -67t-67 -27q-40 0 -66 28q-26 29 -26 67t26 66q27 28 67 28q41 0 67 -28t26 -67z" />
    <glyph glyph-name="Circumflex" horiz-adv-x="892" 
d="M764 1583l-51 -94l-277 131l-266 -131l-45 88l317 172z" />
    <glyph glyph-name="Tilde" horiz-adv-x="1038" 
d="M397 1622q-74 0 -131 -94l-82 59q80 143 219 144q74 1 154 -55t121 -56q72 0 131 94l82 -59q-82 -143 -219 -144q-74 -1 -154 55t-121 56z" />
    <glyph glyph-name="Caron" horiz-adv-x="892" 
d="M758 1661l-316 -172l-321 168l49 92l276 -131l267 131z" />
  </font>
</defs>
</svg>
